<?xml version="1.0" encoding="UTF-8" standalone="no" ?>
<!DOCTYPE svg PUBLIC "-//W3C//DTD SVG 1.1//EN" "http://www.w3.org/Graphics/SVG/1.1/DTD/svg11.dtd">
<svg xmlns="http://www.w3.org/2000/svg" xmlns:xlink="http://www.w3.org/1999/xlink" version="1.1" width="65" height="65" viewBox="0 0 65 65" xml:space="preserve">
<desc>Created with Fabric.js 5.2.4</desc>
<defs>
</defs>
<g transform="matrix(1 0 0 1 32.5 32.5)" id="81dfde83-c02d-4197-8bf8-a80c075aa645"  >
<rect style="stroke: none; stroke-width: 1; stroke-dasharray: none; stroke-linecap: butt; stroke-dashoffset: 0; stroke-linejoin: miter; stroke-miterlimit: 4; fill: rgb(255,255,255); fill-rule: nonzero; opacity: 1; visibility: hidden;" vector-effect="non-scaling-stroke"  x="-32.5" y="-32.5" rx="0" ry="0" width="65" height="65" />
</g>
<g transform="matrix(Infinity NaN NaN Infinity 0 0)" id="0f4f99d3-1d24-407a-bd20-b944e5a53a92"  >
</g>
<g transform="matrix(0.06 0 0 0.06 32.5 32.5)"  >
<g style="" vector-effect="non-scaling-stroke"   >
		<g transform="matrix(23.47 0 0 23.47 0 0)"  >
<rect style="stroke: rgb(0,0,0); stroke-width: 0; stroke-dasharray: none; stroke-linecap: butt; stroke-dashoffset: 0; stroke-linejoin: miter; stroke-miterlimit: 4; fill: rgb(185,221,231); fill-rule: nonzero; opacity: 1;" vector-effect="non-scaling-stroke"  x="-17.04" y="-17.04" rx="17.04" ry="17.04" width="34.08" height="34.08" />
</g>
		<g transform="matrix(23.47 0 0 23.47 0 -93.9)"  >
<path style="stroke: rgb(0,0,0); stroke-width: 1; stroke-dasharray: none; stroke-linecap: butt; stroke-dashoffset: 0; stroke-linejoin: miter; stroke-miterlimit: 4; fill: rgb(0,0,0); fill-rule: nonzero; opacity: 1;" vector-effect="non-scaling-stroke"  transform=" translate(-12, -8)" d="M 12 4 C 9.79 4 8 5.79 8 8 C 8 10.21 9.79 12 12 12 C 14.21 12 16 10.21 16 8 C 16 5.79 14.21 4 12 4 Z" stroke-linecap="round" />
</g>
		<g transform="matrix(23.47 0 0 23.47 0 117.37)"  >
<path style="stroke: rgb(0,0,0); stroke-width: 1; stroke-dasharray: none; stroke-linecap: butt; stroke-dashoffset: 0; stroke-linejoin: miter; stroke-miterlimit: 4; fill: rgb(0,0,0); fill-rule: nonzero; opacity: 1;" vector-effect="non-scaling-stroke"  transform=" translate(-12, -17)" d="M 4 18 C 4 15.34 9.33 14 12 14 C 14.67 14 20 15.34 20 18 L 20 20 L 4 20 L 4 18 Z" stroke-linecap="round" />
</g>
</g>
</g>
</svg>