<?xml version="1.0" encoding="UTF-8" standalone="no" ?>
<!DOCTYPE svg PUBLIC "-//W3C//DTD SVG 1.1//EN" "http://www.w3.org/Graphics/SVG/1.1/DTD/svg11.dtd">
<svg xmlns="http://www.w3.org/2000/svg" xmlns:xlink="http://www.w3.org/1999/xlink" version="1.1" width="65" height="65" viewBox="0 0 65 65" xml:space="preserve">
<desc>Created with Fabric.js 5.2.4</desc>
<defs>
</defs>
<g transform="matrix(1 0 0 1 32.5 32.5)" id="24051ce9-e239-49ac-a85f-f2236eeafa3e"  >
<rect style="stroke: none; stroke-width: 1; stroke-dasharray: none; stroke-linecap: butt; stroke-dashoffset: 0; stroke-linejoin: miter; stroke-miterlimit: 4; fill: rgb(255,255,255); fill-rule: nonzero; opacity: 1; visibility: hidden;" vector-effect="non-scaling-stroke"  x="-32.5" y="-32.5" rx="0" ry="0" width="65" height="65" />
</g>
<g transform="matrix(Infinity NaN NaN Infinity 0 0)" id="8c65826e-d34a-41c3-96d7-0d630e7ccde3"  >
</g>
<g transform="matrix(0.06 0 0 0.06 32.5 32.5)"  >
<g style="" vector-effect="non-scaling-stroke"   >
		<g transform="matrix(18.32 0 0 18.32 0 0)"  >
<rect style="stroke: rgb(0,0,0); stroke-width: 0; stroke-dasharray: none; stroke-linecap: butt; stroke-dashoffset: 0; stroke-linejoin: miter; stroke-miterlimit: 4; fill: rgb(185,221,231); fill-rule: nonzero; opacity: 1;" vector-effect="non-scaling-stroke"  x="-21.84" y="-21.84" rx="21.84" ry="21.84" width="43.68" height="43.68" />
</g>
		<g transform="matrix(18.32 0 0 18.32 0 0)"  >
<path style="stroke: rgb(0,0,0); stroke-width: 1; stroke-dasharray: none; stroke-linecap: butt; stroke-dashoffset: 0; stroke-linejoin: miter; stroke-miterlimit: 4; fill: rgb(0,0,0); fill-rule: nonzero; opacity: 1;" vector-effect="non-scaling-stroke"  transform=" translate(-12, -12)" d="M 22 2 L 2 2 C 1.4477152501692065 2 1 2.4477152501692068 1 3 L 1 17 C 1 17.552284749830793 1.4477152501692065 18 2 18 L 11 18 L 11 20 L 8 20 C 7.447715250169207 20 7 20.447715250169207 7 21 C 7 21.552284749830793 7.447715250169207 22 8 22 L 16 22 C 16.552284749830793 22 17 21.552284749830793 17 21 C 17 20.447715250169207 16.552284749830793 20 16 20 L 13 20 L 13 18 L 22 18 C 22.552284749830793 18 23 17.552284749830793 23 17 L 23 3 C 23 2.4477152501692068 22.552284749830793 2 22 2 Z M 21 16 L 3 16 L 3 4 L 21 4 Z" stroke-linecap="round" />
</g>
</g>
</g>
</svg>